<svg width="150" height="150" viewBox="0 0 150 150" fill="none" xmlns="http://www.w3.org/2000/svg">
<circle cx="75" cy="75" r="72.5" fill="#E6A003" stroke="#884D03" stroke-width="5"/>
<path d="M94.5 51.25C93.9167 52.5833 93.3958 53.75 92.9375 54.75C92.4792 55.75 92.0833 56.6042 91.75 57.3125C91.375 58.1042 91.0625 58.8125 90.8125 59.4375C90.6042 59.8958 90.3333 60.5208 90 61.3125C89.6667 62.0208 89.25 62.9583 88.75 64.125C88.2917 65.25 87.6875 66.7083 86.9375 68.5C86.5625 66.9583 86.1042 65.6042 85.5625 64.4375C85.0208 63.2708 84.4375 62.25 83.8125 61.375C83.1875 60.5 82.5208 59.7917 81.8125 59.25C81.1458 58.6667 80.4792 58.1875 79.8125 57.8125C78.2708 56.9792 76.6458 56.5208 74.9375 56.4375C72.6875 56.5625 70.9167 56.9375 69.625 57.5625C68.375 58.1458 67.4583 58.8333 66.875 59.625C66.2917 60.375 65.9792 61.1667 65.9375 62C65.8958 62.7917 66 63.4583 66.25 64C66.4583 64.5 67.1875 65.0833 68.4375 65.75C69.7292 66.4167 71.2708 67.1875 73.0625 68.0625C74.8958 68.8958 76.8542 69.8542 78.9375 70.9375C81.0208 71.9792 82.9375 73.1458 84.6875 74.4375C86.4792 75.6875 87.9792 77.0625 89.1875 78.5625C90.4375 80.0208 91.125 81.5833 91.25 83.25C91.375 85.375 91.3542 87.2917 91.1875 89C91.0208 90.7083 90.4375 92.1667 89.4375 93.375C88.4375 94.5833 86.875 95.5417 84.75 96.25C82.6667 96.9583 79.7708 97.3958 76.0625 97.5625C72.2292 97.7292 69.0833 97.5208 66.625 96.9375C64.1667 96.3542 62.1667 95.5625 60.625 94.5625C59.125 93.5625 58 92.4583 57.25 91.25C56.5417 90.0417 56.0208 88.8958 55.6875 87.8125C55.3542 86.6875 55.125 85.7292 55 84.9375C54.875 84.1042 54.6667 83.6042 54.375 83.4375C54.0417 83.2292 53.7083 83.0417 53.375 82.875C53.0833 82.7083 52.7708 82.5625 52.4375 82.4375C52.1042 82.2708 51.7708 82.125 51.4375 82L69.625 79.0625C68.5833 79.8958 67.7708 80.6667 67.1875 81.375C66.6458 82.0833 66.2292 82.7083 65.9375 83.25C65.6042 83.875 65.375 84.4583 65.25 85C65.1667 85.5833 65.3542 86.3125 65.8125 87.1875C66.2708 88.0625 66.8958 88.9167 67.6875 89.75C68.5208 90.5417 69.4792 91.2083 70.5625 91.75C71.6458 92.2917 72.7708 92.5208 73.9375 92.4375C75.3958 92.3125 76.5833 91.9583 77.5 91.375C78.4167 90.75 79.1042 89.9792 79.5625 89.0625C80.0625 88.1458 80.3542 87.1458 80.4375 86.0625C80.5208 84.9792 80.4167 83.9167 80.125 82.875C79.875 81.7917 79.4583 80.7917 78.875 79.875C78.2917 78.9167 77.6042 78.125 76.8125 77.5C76.1042 77 75 76.5208 73.5 76.0625C72.0417 75.6042 70.3958 75.1042 68.5625 74.5625C66.7708 74.0208 64.9167 73.3958 63 72.6875C61.125 71.9792 59.4167 71.1042 57.875 70.0625C56.375 69.0208 55.1667 67.7917 54.25 66.375C53.375 64.9583 53.0417 63.25 53.25 61.25C53.4167 59.5417 53.9583 58.125 54.875 57C55.8333 55.8333 57.0208 54.9167 58.4375 54.25C59.8958 53.5417 61.5 53.0208 63.25 52.6875C65.0417 52.3542 66.8542 52.1667 68.6875 52.125C70.5625 52.0417 72.3958 52.0625 74.1875 52.1875C76.0208 52.3125 77.6667 52.4583 79.125 52.625C80.5833 52.7917 81.8125 52.9583 82.8125 53.125C83.8542 53.25 84.5 53.3333 84.75 53.375C85.8333 53.4583 86.9167 53.4375 88 53.3125C88.9583 53.2292 90 53.0417 91.125 52.75C92.2917 52.4167 93.4167 51.9167 94.5 51.25Z" fill="black"/>
</svg>
