<svg width="239" height="216" viewBox="0 0 239 216" fill="none" xmlns="http://www.w3.org/2000/svg">
<circle cx="116" cy="75" r="72.5" fill="#E6A003" stroke="#884D03" stroke-width="5"/>
<path d="M135.5 51.25C134.917 52.5833 134.396 53.75 133.938 54.75C133.479 55.75 133.083 56.6042 132.75 57.3125C132.375 58.1042 132.062 58.8125 131.812 59.4375C131.604 59.8958 131.333 60.5208 131 61.3125C130.667 62.0208 130.25 62.9583 129.75 64.125C129.292 65.25 128.688 66.7083 127.938 68.5C127.562 66.9583 127.104 65.6042 126.562 64.4375C126.021 63.2708 125.438 62.25 124.812 61.375C124.188 60.5 123.521 59.7917 122.812 59.25C122.146 58.6667 121.479 58.1875 120.812 57.8125C119.271 56.9792 117.646 56.5208 115.938 56.4375C113.688 56.5625 111.917 56.9375 110.625 57.5625C109.375 58.1458 108.458 58.8333 107.875 59.625C107.292 60.375 106.979 61.1667 106.938 62C106.896 62.7917 107 63.4583 107.25 64C107.458 64.5 108.188 65.0833 109.438 65.75C110.729 66.4167 112.271 67.1875 114.062 68.0625C115.896 68.8958 117.854 69.8542 119.938 70.9375C122.021 71.9792 123.938 73.1458 125.688 74.4375C127.479 75.6875 128.979 77.0625 130.188 78.5625C131.438 80.0208 132.125 81.5833 132.25 83.25C132.375 85.375 132.354 87.2917 132.188 89C132.021 90.7083 131.438 92.1667 130.438 93.375C129.438 94.5833 127.875 95.5417 125.75 96.25C123.667 96.9583 120.771 97.3958 117.062 97.5625C113.229 97.7292 110.083 97.5208 107.625 96.9375C105.167 96.3542 103.167 95.5625 101.625 94.5625C100.125 93.5625 99 92.4583 98.25 91.25C97.5417 90.0417 97.0208 88.8958 96.6875 87.8125C96.3542 86.6875 96.125 85.7292 96 84.9375C95.875 84.1042 95.6667 83.6042 95.375 83.4375C95.0417 83.2292 94.7083 83.0417 94.375 82.875C94.0833 82.7083 93.7708 82.5625 93.4375 82.4375C93.1042 82.2708 92.7708 82.125 92.4375 82L110.625 79.0625C109.583 79.8958 108.771 80.6667 108.188 81.375C107.646 82.0833 107.229 82.7083 106.938 83.25C106.604 83.875 106.375 84.4583 106.25 85C106.167 85.5833 106.354 86.3125 106.812 87.1875C107.271 88.0625 107.896 88.9167 108.688 89.75C109.521 90.5417 110.479 91.2083 111.562 91.75C112.646 92.2917 113.771 92.5208 114.938 92.4375C116.396 92.3125 117.583 91.9583 118.5 91.375C119.417 90.75 120.104 89.9792 120.562 89.0625C121.062 88.1458 121.354 87.1458 121.438 86.0625C121.521 84.9792 121.417 83.9167 121.125 82.875C120.875 81.7917 120.458 80.7917 119.875 79.875C119.292 78.9167 118.604 78.125 117.812 77.5C117.104 77 116 76.5208 114.5 76.0625C113.042 75.6042 111.396 75.1042 109.562 74.5625C107.771 74.0208 105.917 73.3958 104 72.6875C102.125 71.9792 100.417 71.1042 98.875 70.0625C97.375 69.0208 96.1667 67.7917 95.25 66.375C94.375 64.9583 94.0417 63.25 94.25 61.25C94.4167 59.5417 94.9583 58.125 95.875 57C96.8333 55.8333 98.0208 54.9167 99.4375 54.25C100.896 53.5417 102.5 53.0208 104.25 52.6875C106.042 52.3542 107.854 52.1667 109.688 52.125C111.562 52.0417 113.396 52.0625 115.188 52.1875C117.021 52.3125 118.667 52.4583 120.125 52.625C121.583 52.7917 122.812 52.9583 123.812 53.125C124.854 53.25 125.5 53.3333 125.75 53.375C126.833 53.4583 127.917 53.4375 129 53.3125C129.958 53.2292 131 53.0417 132.125 52.75C133.292 52.4167 134.417 51.9167 135.5 51.25Z" fill="black"/>
<path d="M26.7188 178.586C26.7188 181.039 25.9766 183.008 24.4922 184.492C23.0078 185.977 21.0469 186.719 18.6094 186.719C17.5938 186.719 16.6484 186.602 15.7734 186.367C14.9141 186.117 14.125 185.734 13.4062 185.219C12.6094 184.656 12.0078 183.984 11.6016 183.203C11.2109 182.422 11.0156 181.547 11.0156 180.578C11.0156 179.766 11.1641 179.047 11.4609 178.422C11.7578 177.781 12.2109 177.242 12.8203 176.805C13.3672 176.414 13.9766 176.117 14.6484 175.914C15.3359 175.711 16.1016 175.609 16.9453 175.609C17.4609 175.609 17.9531 175.672 18.4219 175.797C18.8906 175.922 19.3047 176.117 19.6641 176.383C20.0859 176.695 20.3984 177.055 20.6016 177.461C20.8203 177.852 20.9297 178.305 20.9297 178.82C20.9297 179.57 20.6406 180.195 20.0625 180.695C19.5 181.195 18.8281 181.445 18.0469 181.445C17.5469 181.445 17.125 181.359 16.7812 181.188C16.4375 181.016 16.1719 180.742 15.9844 180.367C16.1094 180.398 16.2422 180.422 16.3828 180.438C16.5234 180.453 16.6484 180.461 16.7578 180.461C17.3047 180.461 17.7109 180.367 17.9766 180.18C18.2422 179.977 18.375 179.664 18.375 179.242C18.375 178.836 18.2344 178.531 17.9531 178.328C17.6719 178.109 17.25 178 16.6875 178C16.3125 178 15.9531 178.055 15.6094 178.164C15.2656 178.258 14.9688 178.406 14.7188 178.609C14.4219 178.844 14.1953 179.117 14.0391 179.43C13.8828 179.727 13.8047 180.055 13.8047 180.414C13.8047 181.57 14.1797 182.43 14.9297 182.992C15.6797 183.555 16.8047 183.836 18.3047 183.836C19.7734 183.836 20.9609 183.336 21.8672 182.336C22.7734 181.32 23.2266 180.07 23.2266 178.586C23.2266 177.695 23.0156 176.898 22.5938 176.195C22.1875 175.492 21.5781 174.883 20.7656 174.367C20.0938 173.93 19.3438 173.609 18.5156 173.406C17.7031 173.203 16.8203 173.102 15.8672 173.102C14.7109 173.102 13.6562 173.242 12.7031 173.523C11.75 173.805 10.9062 174.234 10.1719 174.812C9.375 175.438 8.77344 176.188 8.36719 177.062C7.96094 177.938 7.75781 178.938 7.75781 180.062C7.75781 181.203 8.13281 182.312 8.88281 183.391C9.63281 184.453 10.7578 185.492 12.2578 186.508C13.6641 187.461 15.0625 188.406 16.4531 189.344C17.8438 190.281 19.2344 191.219 20.625 192.156C22.125 193.484 23.25 194.945 24 196.539C24.75 198.117 25.125 199.828 25.125 201.672C25.125 203.406 24.8125 204.961 24.1875 206.336C23.5781 207.695 22.6484 208.867 21.3984 209.852C20.2422 210.758 18.9375 211.453 17.4844 211.938C16.0469 212.422 14.4453 212.664 12.6797 212.664C11.2891 212.664 10.0078 212.539 8.83594 212.289C7.67969 212.039 6.60938 211.656 5.625 211.141C4.42188 210.5 3.51562 209.711 2.90625 208.773C2.29688 207.82 1.99219 206.711 1.99219 205.445C1.99219 203.523 2.50781 201.977 3.53906 200.805C4.58594 199.617 6.05469 199.023 7.94531 199.023C8.71094 199.023 9.40625 199.133 10.0312 199.352C10.6562 199.57 11.2266 199.883 11.7422 200.289C12.3047 200.727 12.7188 201.242 12.9844 201.836C13.2656 202.43 13.4062 203.086 13.4062 203.805C13.4062 205.148 13.0859 206.156 12.4453 206.828C11.8047 207.484 10.8281 207.812 9.51562 207.812C8.8125 207.812 8.19531 207.617 7.66406 207.227C7.14844 206.82 6.89062 206.289 6.89062 205.633C6.89062 205.039 7.02344 204.594 7.28906 204.297C7.57031 204 7.98438 203.852 8.53125 203.852C8.59375 203.852 8.66406 203.859 8.74219 203.875C8.82031 203.875 8.89844 203.875 8.97656 203.875C8.78906 204.016 8.64844 204.164 8.55469 204.32C8.46094 204.477 8.41406 204.633 8.41406 204.789C8.41406 205.102 8.50781 205.328 8.69531 205.469C8.88281 205.609 9.15625 205.68 9.51562 205.68C9.92188 205.68 10.2188 205.555 10.4062 205.305C10.6094 205.039 10.7109 204.641 10.7109 204.109C10.7109 203.75 10.625 203.43 10.4531 203.148C10.2969 202.852 10.0469 202.586 9.70312 202.352C9.42188 202.164 9.10156 202.023 8.74219 201.93C8.39844 201.836 8.03125 201.789 7.64062 201.789C6.5625 201.789 5.75 202.102 5.20312 202.727C4.65625 203.336 4.38281 204.242 4.38281 205.445C4.38281 206.148 4.54688 206.773 4.875 207.32C5.20312 207.867 5.6875 208.336 6.32812 208.727C6.85938 209.055 7.45312 209.297 8.10938 209.453C8.76562 209.609 9.46875 209.688 10.2188 209.688C11.1719 209.688 12.0469 209.523 12.8438 209.195C13.6406 208.867 14.3516 208.367 14.9766 207.695C15.5859 207.039 16.0391 206.312 16.3359 205.516C16.6484 204.719 16.8047 203.828 16.8047 202.844C16.8047 201.812 16.4844 200.719 15.8438 199.562C15.2188 198.391 14.2578 197.164 12.9609 195.883C11.8047 194.742 10.625 193.617 9.42188 192.508C8.23438 191.398 7.04688 190.281 5.85938 189.156C4.59375 187.797 3.64062 186.461 3 185.148C2.35938 183.82 2.03906 182.523 2.03906 181.258C2.03906 179.383 2.36719 177.727 3.02344 176.289C3.67969 174.852 4.65625 173.648 5.95312 172.68C7.125 171.805 8.48438 171.156 10.0312 170.734C11.5938 170.297 13.3516 170.078 15.3047 170.078C16.7422 170.078 18.0938 170.25 19.3594 170.594C20.6406 170.922 21.8203 171.43 22.8984 172.117C24.1797 172.93 25.1328 173.875 25.7578 174.953C26.3984 176.031 26.7188 177.242 26.7188 178.586ZM52.1016 205.984C50.6172 207.969 48.9766 209.453 47.1797 210.438C45.3984 211.422 43.4531 211.914 41.3438 211.914C38.0781 211.914 35.4141 210.914 33.3516 208.914C31.3047 206.898 30.2812 204.266 30.2812 201.016C30.2812 197.812 31.4531 195.039 33.7969 192.695C36.1406 190.336 38.9062 189.156 42.0938 189.156C43.0469 189.156 43.9219 189.234 44.7188 189.391C45.5312 189.547 46.2578 189.781 46.8984 190.094C47.7578 190.5 48.3984 191.016 48.8203 191.641C49.2422 192.266 49.4531 192.992 49.4531 193.82C49.4531 194.586 49.1328 195.344 48.4922 196.094C47.8672 196.844 46.9141 197.586 45.6328 198.32L44.625 197.359C44.9531 197.031 45.2188 196.695 45.4219 196.352C45.6406 195.992 45.7891 195.625 45.8672 195.25L43.0781 194.547L43.4062 193.539L45.9375 193.891C45.8906 193.5 45.75 193.148 45.5156 192.836C45.2969 192.523 44.9844 192.25 44.5781 192.016C44.2344 191.812 43.8672 191.664 43.4766 191.57C43.1016 191.477 42.7031 191.43 42.2812 191.43C42.0625 191.43 41.8281 191.445 41.5781 191.477C41.3438 191.492 41.1016 191.516 40.8516 191.547L41.3906 195.203L40.3125 195.461L39.3516 192.273C38.6328 192.602 38.0078 193.07 37.4766 193.68C36.9609 194.289 36.5469 195.023 36.2344 195.883L39.4688 196.844L39 198.039L35.8125 197.242C35.6875 197.602 35.5859 198.031 35.5078 198.531C35.4453 199.016 35.4141 199.578 35.4141 200.219C35.4141 200.516 35.4297 200.805 35.4609 201.086C35.4922 201.352 35.5391 201.609 35.6016 201.859L38.2734 200.945L39 202.328L35.9297 203.406C36.0703 203.875 36.2891 204.359 36.5859 204.859C36.8828 205.344 37.25 205.852 37.6875 206.383L39.8203 204.719L40.8516 205.562L39 207.344C39.5156 207.75 40.0938 208.055 40.7344 208.258C41.3906 208.445 42.1328 208.539 42.9609 208.539L43.1719 205.797H44.3906L44.625 208.492C45.1875 208.445 45.7344 208.336 46.2656 208.164C46.8125 207.977 47.3594 207.727 47.9062 207.414L47.0625 205.07L48.1406 204.672L49.0547 206.57C49.3203 206.367 49.5938 206.125 49.875 205.844C50.1719 205.547 50.4688 205.211 50.7656 204.836L52.1016 205.984ZM78.4453 208.586L78.4219 209.852C76 210.945 73.6016 211.758 71.2266 212.289C68.8672 212.836 66.5312 213.109 64.2188 213.109C62.9375 213.109 61.7656 212.984 60.7031 212.734C59.6406 212.484 58.6875 212.117 57.8438 211.633C56.8438 211.055 56.0859 210.312 55.5703 209.406C55.0703 208.5 54.8203 207.445 54.8203 206.242C54.8203 204.117 55.8828 202.219 58.0078 200.547C60.1484 198.875 63.3359 197.43 67.5703 196.211C67.2266 195.211 66.6406 194.453 65.8125 193.938C65 193.422 63.9609 193.164 62.6953 193.164C61.3359 193.164 60.1016 193.445 58.9922 194.008C57.8828 194.555 56.8984 195.367 56.0391 196.445L54.7969 195.25C56.1094 193.234 57.7344 191.719 59.6719 190.703C61.6094 189.672 63.8672 189.156 66.4453 189.156C68.5391 189.156 70.375 189.742 71.9531 190.914C73.5469 192.07 74.8906 193.812 75.9844 196.141C76.8438 197.969 77.4766 199.922 77.8828 202C78.3047 204.062 78.4922 206.258 78.4453 208.586ZM74.8125 200.43C74.8125 199.867 74.6719 199.445 74.3906 199.164C74.125 198.883 73.7109 198.742 73.1484 198.742C72.5859 198.742 72.1562 198.883 71.8594 199.164C71.5781 199.445 71.4375 199.867 71.4375 200.43C71.4375 200.992 71.5781 201.414 71.8594 201.695C72.1562 201.961 72.5859 202.094 73.1484 202.094C73.7109 202.094 74.125 201.961 74.3906 201.695C74.6719 201.414 74.8125 200.992 74.8125 200.43ZM69.2344 206.852C69.2344 205.43 69.1641 204.023 69.0234 202.633C68.8984 201.242 68.6953 199.867 68.4141 198.508C66.9453 198.93 65.6172 199.383 64.4297 199.867C63.2578 200.336 62.2344 200.836 61.3594 201.367L63.75 211.047C65 211.047 66.0781 210.977 66.9844 210.836C67.8906 210.695 68.6172 210.469 69.1641 210.156C69.1953 209.594 69.2109 209.039 69.2109 208.492C69.2266 207.945 69.2344 207.398 69.2344 206.852ZM75.7734 206.758C75.7734 206.164 75.5625 205.656 75.1406 205.234C74.7344 204.812 74.2266 204.602 73.6172 204.602C73.0234 204.602 72.5078 204.805 72.0703 205.211C71.6484 205.617 71.4375 206.133 71.4375 206.758C71.4375 207.367 71.6484 207.875 72.0703 208.281C72.5078 208.688 73.0234 208.891 73.6172 208.891C74.2266 208.891 74.7344 208.688 75.1406 208.281C75.5625 207.859 75.7734 207.352 75.7734 206.758ZM116.789 210.883L107.227 211.961L107.414 200.172C107.445 198.5 107.273 197.242 106.898 196.398C106.539 195.555 105.992 195.133 105.258 195.133C104.805 195.133 104.344 195.414 103.875 195.977C103.406 196.523 102.922 197.352 102.422 198.461C102.078 199.211 101.781 199.969 101.531 200.734C101.297 201.5 101.086 202.273 100.898 203.055C100.82 202.398 100.734 201.742 100.641 201.086C100.562 200.414 100.484 199.75 100.406 199.094C100.266 198.266 100.086 197.547 99.8672 196.938C99.6641 196.312 99.4141 195.789 99.1172 195.367C98.7266 194.82 98.25 194.406 97.6875 194.125C97.125 193.844 96.4688 193.703 95.7188 193.703C94.6406 193.703 93.6719 194.117 92.8125 194.945C91.9531 195.773 91.2109 197.016 90.5859 198.672L90.8203 211.117L82.3594 210.531L85.2188 187.844L90.1172 188.617L90.3516 193.422C91.2891 192.234 92.2734 191.344 93.3047 190.75C94.3516 190.141 95.4453 189.836 96.5859 189.836C97.6641 189.836 98.625 190.047 99.4688 190.469C100.328 190.891 101.055 191.531 101.648 192.391C102.523 191.438 103.406 190.727 104.297 190.258C105.188 189.773 106.078 189.531 106.969 189.531C107.969 189.531 108.891 189.805 109.734 190.352C110.578 190.883 111.352 191.68 112.055 192.742C112.586 193.539 113.039 194.43 113.414 195.414C113.805 196.398 114.133 197.469 114.398 198.625L111.422 199.469L111.773 201.297L114.82 200.664L115.055 202.68L112.078 203.172L112.5 205.188L115.641 204.672L116.016 206.711L112.664 206.875L112.969 209.008L116.32 208.656L116.789 210.883ZM103.828 207.414C103.828 208.273 103.531 209 102.938 209.594C102.359 210.188 101.633 210.484 100.758 210.484C99.8984 210.484 99.1641 210.188 98.5547 209.594C97.9609 209 97.6641 208.273 97.6641 207.414C97.6641 206.555 97.9609 205.836 98.5547 205.258C99.1641 204.664 99.8984 204.367 100.758 204.367C101.633 204.367 102.359 204.664 102.938 205.258C103.531 205.836 103.828 206.555 103.828 207.414ZM164.883 197.594H162.727C162.727 198.281 162.656 198.969 162.516 199.656C162.391 200.328 162.18 201 161.883 201.672L164.391 202.797L163.641 204.367L161.133 203.242C160.68 203.977 160.156 204.648 159.562 205.258C158.969 205.867 158.312 206.406 157.594 206.875L158.789 209.734L156.914 210.836L155.602 207.906C154.586 208.312 153.586 208.578 152.602 208.703C151.617 208.828 150.664 208.812 149.742 208.656L149.086 212.031L147 211.469L147.844 208.422C147.156 208.266 146.492 208.086 145.852 207.883C145.227 207.664 144.633 207.43 144.07 207.18L142.453 209.852L140.766 208.539L142.195 206.102C141.492 205.617 140.836 205.062 140.227 204.438C139.617 203.812 139.039 203.109 138.492 202.328L135.68 203.805L134.719 202.211L137.508 200.594C136.914 199.406 136.461 198.156 136.148 196.844C135.836 195.516 135.664 194.109 135.633 192.625L132.586 193.117L132.047 191.031L135.68 190.562C135.789 189.25 135.984 187.977 136.266 186.742C136.562 185.492 136.953 184.273 137.438 183.086L134.555 181.141L135.867 179.312L138.375 181.094C138.844 180.312 139.312 179.602 139.781 178.961C140.25 178.305 140.727 177.703 141.211 177.156L139.102 174.297L140.648 173.102L142.688 175.656C143.453 175 144.227 174.422 145.008 173.922C145.789 173.422 146.57 173.016 147.352 172.703L146.695 169.914L148.922 169.492L149.273 172.117C149.773 172.008 150.281 171.922 150.797 171.859C151.328 171.797 151.859 171.766 152.391 171.766C152.938 171.766 153.469 171.805 153.984 171.883C154.516 171.961 155.039 172.078 155.555 172.234L156.211 169.492L158.062 169.961L157.148 173.031C157.773 173.422 158.359 173.898 158.906 174.461C159.453 175.008 159.953 175.641 160.406 176.359L162.492 174.93L163.688 176.805L161.367 178.164C161.602 178.711 161.805 179.211 161.977 179.664C162.148 180.117 162.281 180.516 162.375 180.859L160.172 181.773C159.094 179.961 157.844 178.602 156.422 177.695C155 176.773 153.391 176.312 151.594 176.312C150.062 176.312 148.648 176.641 147.352 177.297C146.055 177.938 144.891 178.914 143.859 180.227C142.891 181.445 142.172 182.758 141.703 184.164C141.234 185.57 141 187.055 141 188.617C141 190.352 141.219 191.938 141.656 193.375C142.094 194.812 142.758 196.094 143.648 197.219C144.633 198.469 145.781 199.406 147.094 200.031C148.422 200.641 149.922 200.945 151.594 200.945C153.844 200.945 155.703 200.273 157.172 198.93C158.641 197.586 159.375 195.805 159.375 193.586L161.484 192.742C161.75 193.211 161.969 193.703 162.141 194.219C162.312 194.734 162.453 195.289 162.562 195.883H164.883V197.594ZM194.789 198.438L191.859 199.234C191.906 199.531 191.945 199.852 191.977 200.195C192.008 200.523 192.023 200.875 192.023 201.25C192.023 201.812 191.984 202.367 191.906 202.914C191.828 203.461 191.711 204.008 191.555 204.555L193.898 205.633L192.703 207.695L190.852 206.383C190.258 207.648 189.492 208.719 188.555 209.594C187.617 210.469 186.508 211.164 185.227 211.68L185.883 214.469L183.727 215.008L183.305 212.266C182.836 212.344 182.422 212.398 182.062 212.43C181.719 212.477 181.422 212.5 181.172 212.5C180.234 212.5 179.312 212.383 178.406 212.148C177.516 211.914 176.656 211.547 175.828 211.047L174.094 213.742L172.242 212.664L174.211 209.852C173.586 209.336 173.031 208.758 172.547 208.117C172.078 207.477 171.68 206.781 171.352 206.031L168.422 206.945L168 204.953L170.672 204.367C170.531 203.789 170.43 203.234 170.367 202.703C170.305 202.172 170.273 201.688 170.273 201.25C170.273 200.766 170.297 200.297 170.344 199.844C170.406 199.375 170.5 198.93 170.625 198.508L168 197.664L168.539 195.648L171.234 196.773C171.609 195.82 172.094 194.953 172.688 194.172C173.297 193.391 174.008 192.703 174.82 192.109L173.25 189.648L175.055 188.406L176.602 191.031C177.32 190.688 178.055 190.43 178.805 190.258C179.57 190.086 180.359 190 181.172 190C181.984 190 182.75 190.086 183.469 190.258C184.203 190.414 184.906 190.648 185.578 190.961L186.82 188.734L188.648 189.766L187.383 192.039C188.305 192.711 189.094 193.484 189.75 194.359C190.406 195.234 190.953 196.219 191.391 197.312L194.25 196.047L194.789 198.438ZM185.461 201.25C185.461 200.266 185.367 199.359 185.18 198.531C184.992 197.703 184.688 196.945 184.266 196.258C183.766 195.43 183.172 194.812 182.484 194.406C181.797 193.984 180.992 193.773 180.07 193.773C179.18 193.773 178.383 193.984 177.68 194.406C176.977 194.812 176.383 195.438 175.898 196.281C175.492 196.969 175.188 197.734 174.984 198.578C174.797 199.406 174.703 200.297 174.703 201.25C174.703 202.266 174.797 203.195 174.984 204.039C175.188 204.867 175.484 205.617 175.875 206.289C176.359 207.133 176.953 207.758 177.656 208.164C178.359 208.57 179.164 208.773 180.07 208.773C181.008 208.773 181.828 208.57 182.531 208.164C183.234 207.758 183.82 207.133 184.289 206.289C184.664 205.617 184.953 204.867 185.156 204.039C185.359 203.195 185.461 202.266 185.461 201.25ZM208.758 183.953L208.172 185.383L206.133 184.328C205.914 184.609 205.672 184.836 205.406 185.008C205.141 185.18 204.844 185.305 204.516 185.383L204.984 187.305L203.391 187.539L202.992 185.523C202.742 185.477 202.492 185.391 202.242 185.266C202.008 185.125 201.781 184.969 201.562 184.797L200.016 186.227L198.938 184.984L200.742 183.672C200.586 183.375 200.492 183.062 200.461 182.734C200.445 182.406 200.477 182.055 200.555 181.68L198.469 180.367L199.242 179.102L201.164 180.414C201.352 180.18 201.562 179.984 201.797 179.828C202.047 179.656 202.328 179.523 202.641 179.43L202.242 176.664H203.742L203.836 179.242C204.18 179.289 204.492 179.367 204.773 179.477C205.055 179.586 205.32 179.727 205.57 179.898L207.211 178.586L208.289 179.664L206.414 180.93C206.539 181.102 206.625 181.367 206.672 181.727C206.719 182.086 206.734 182.539 206.719 183.086L208.758 183.953ZM207.961 213.695L198.094 212.43L201.75 189.602H206.133L207.961 213.695ZM205.172 201.602C205.172 201.055 205.031 200.641 204.75 200.359C204.484 200.078 204.07 199.938 203.508 199.938C202.93 199.938 202.5 200.078 202.219 200.359C201.938 200.641 201.797 201.055 201.797 201.602C201.797 202.164 201.938 202.586 202.219 202.867C202.5 203.148 202.93 203.289 203.508 203.289C204.07 203.289 204.484 203.148 204.75 202.867C205.031 202.586 205.172 202.164 205.172 201.602ZM205.172 207.953C205.172 207.359 204.961 206.852 204.539 206.43C204.117 206.008 203.602 205.797 202.992 205.797C202.414 205.797 201.914 206.008 201.492 206.43C201.07 206.852 200.859 207.359 200.859 207.953C200.859 208.547 201.07 209.055 201.492 209.477C201.914 209.883 202.414 210.086 202.992 210.086C203.602 210.086 204.117 209.883 204.539 209.477C204.961 209.055 205.172 208.547 205.172 207.953ZM238.383 210.086L229.359 211.68C229.484 206.898 229.57 203.641 229.617 201.906C229.664 200.156 229.688 199.062 229.688 198.625C229.688 197.172 229.453 196.086 228.984 195.367C228.516 194.633 227.805 194.266 226.852 194.266C225.961 194.266 225.023 194.672 224.039 195.484C223.07 196.281 222.055 197.484 220.992 199.094L220.312 211.234L216.07 211.797L213.562 190.305L221.578 188.617L221.227 195.367C222.383 193.82 223.609 192.656 224.906 191.875C226.203 191.078 227.562 190.68 228.984 190.68C230.859 190.68 232.391 191.383 233.578 192.789C234.781 194.195 235.664 196.312 236.227 199.141L238.383 210.086ZM234.516 200.898C234.516 200.414 234.391 200.047 234.141 199.797C233.891 199.531 233.516 199.398 233.016 199.398C232.516 199.398 232.133 199.531 231.867 199.797C231.617 200.047 231.492 200.414 231.492 200.898C231.492 201.414 231.617 201.805 231.867 202.07C232.133 202.32 232.516 202.445 233.016 202.445C233.516 202.445 233.891 202.32 234.141 202.07C234.391 201.805 234.516 201.414 234.516 200.898ZM235.383 206.617C235.383 206.086 235.188 205.641 234.797 205.281C234.406 204.906 233.953 204.719 233.438 204.719C232.781 204.719 232.289 204.883 231.961 205.211C231.648 205.523 231.492 205.992 231.492 206.617C231.492 207.258 231.648 207.742 231.961 208.07C232.289 208.383 232.781 208.539 233.438 208.539C233.953 208.539 234.406 208.359 234.797 208C235.188 207.625 235.383 207.164 235.383 206.617Z" fill="black"/>
</svg>
